<svg width="34" height="34" viewBox="0 0 34 34" fill="none" xmlns="http://www.w3.org/2000/svg">
<path d="M17 0.75C13.7861 0.75 10.6443 1.70305 7.97199 3.48862C5.29969 5.27419 3.21689 7.81209 1.98696 10.7814C0.757041 13.7507 0.435237 17.018 1.06225 20.1702C1.68926 23.3224 3.23692 26.2179 5.50952 28.4905C7.78213 30.7631 10.6776 32.3107 13.8298 32.9378C16.982 33.5648 20.2493 33.243 23.2186 32.013C26.1879 30.7831 28.7258 28.7003 30.5114 26.028C32.297 23.3557 33.25 20.2139 33.25 17C33.245 12.6918 31.5314 8.56139 28.485 5.515C25.4386 2.4686 21.3083 0.754962 17 0.75ZM30.75 17C30.7511 18.2681 30.576 19.5301 30.2297 20.75H24.2125C24.5958 18.2647 24.5958 15.7353 24.2125 13.25H30.2297C30.576 14.4699 30.7511 15.7319 30.75 17ZM12.9375 23.25H21.0625C20.2621 25.8728 18.8725 28.2778 17 30.2812C15.1283 28.2773 13.7388 25.8724 12.9375 23.25ZM12.3281 20.75C11.899 18.2684 11.899 15.7316 12.3281 13.25H21.6844C22.1135 15.7316 22.1135 18.2684 21.6844 20.75H12.3281ZM3.25001 17C3.24892 15.7319 3.42403 14.4699 3.77032 13.25H9.78751C9.40417 15.7353 9.40417 18.2647 9.78751 20.75H3.77032C3.42403 19.5301 3.24892 18.2681 3.25001 17ZM21.0625 10.75H12.9375C13.738 8.1272 15.1275 5.72216 17 3.71875C18.8718 5.72269 20.2612 8.12756 21.0625 10.75ZM29.2391 10.75H23.6734C22.972 8.17642 21.7897 5.75887 20.1891 3.625C22.123 4.08958 23.9336 4.96684 25.4967 6.19665C27.0599 7.42646 28.3386 8.97974 29.2453 10.75H29.2391ZM13.8109 3.625C12.2103 5.75887 11.0281 8.17642 10.3266 10.75H4.75469C5.66137 8.97974 6.94011 7.42646 8.50327 6.19665C10.0664 4.96684 11.877 4.08958 13.8109 3.625ZM4.75469 23.25H10.3266C11.0281 25.8236 12.2103 28.2411 13.8109 30.375C11.877 29.9104 10.0664 29.0332 8.50327 27.8034C6.94011 26.5735 5.66137 25.0203 4.75469 23.25ZM20.1891 30.375C21.7897 28.2411 22.972 25.8236 23.6734 23.25H29.2453C28.3386 25.0203 27.0599 26.5735 25.4967 27.8034C23.9336 29.0332 22.123 29.9104 20.1891 30.375Z" fill="#ECE9E9"/>
</svg>
