<svg width="40" height="36" viewBox="0 0 40 36" fill="none" xmlns="http://www.w3.org/2000/svg">
<path d="M39.8869 5.58145C39.7748 5.31072 39.585 5.0793 39.3414 4.91646C39.0978 4.75362 38.8114 4.66667 38.5183 4.66661H32.883C32.0951 3.32615 30.9737 2.21237 29.628 1.43355C28.2822 0.65472 26.7579 0.237351 25.2031 0.222015C24.0447 0.206821 22.8951 0.423454 21.8217 0.859167C20.7483 1.29488 19.7729 1.94087 18.9529 2.75914C18.1089 3.58735 17.439 4.57595 16.9827 5.6668C16.5263 6.75765 16.2926 7.92873 16.2954 9.1112V10.239C8.83958 8.27228 2.74123 2.20727 2.67642 2.14245C2.47765 1.94193 2.22573 1.80237 1.95032 1.74023C1.6749 1.67808 1.38746 1.69593 1.12185 1.79166C0.856231 1.8874 0.623504 2.05704 0.451071 2.28061C0.278639 2.50418 0.173681 2.77237 0.148557 3.05359C-0.649617 11.9039 1.92084 17.8263 4.22277 21.2357C5.34517 22.9211 6.71059 24.4313 8.27475 25.7173C5.45429 28.9637 1.0134 30.6693 0.965251 30.6878C0.756195 30.7661 0.567537 30.8907 0.413373 31.0521C0.259209 31.2136 0.143524 31.4078 0.0749637 31.6202C0.00640309 31.8327 -0.0132607 32.0579 0.0174411 32.279C0.0481429 32.5001 0.128416 32.7114 0.252264 32.8972C0.391157 33.1046 0.946732 33.8324 2.30418 34.512C3.98202 35.3528 6.19876 35.7787 8.88773 35.7787C21.9752 35.7787 32.9107 25.7006 34.0275 12.7335L39.5665 7.19632C39.7737 6.98901 39.9146 6.72493 39.9717 6.43748C40.0287 6.15004 39.9992 5.85213 39.8869 5.58145ZM31.5533 11.0279C31.2993 11.2826 31.1466 11.6209 31.1237 11.9798C30.3699 23.6635 20.6066 32.8157 8.88773 32.8157C6.93211 32.8157 5.55429 32.5564 4.58759 32.2453C6.71914 31.0878 9.69146 29.097 11.6026 26.2303C11.7148 26.0617 11.7912 25.8719 11.8272 25.6727C11.8632 25.4734 11.8579 25.2689 11.8117 25.0718C11.7656 24.8746 11.6795 24.689 11.5588 24.5264C11.4381 24.3639 11.2854 24.2278 11.11 24.1265C11.023 24.0765 2.97828 19.2486 2.96161 6.34814C5.92467 8.75563 11.3415 12.4909 17.5306 13.5317C17.7427 13.5675 17.9601 13.5566 18.1676 13.4999C18.3751 13.4432 18.5677 13.3419 18.7322 13.2033C18.8966 13.0646 19.0288 12.8917 19.1197 12.6968C19.2106 12.5018 19.2579 12.2894 19.2584 12.0743V9.1112C19.2568 8.32089 19.4132 7.53824 19.7185 6.80929C20.0238 6.08034 20.4719 5.41983 21.0363 4.86661C21.5773 4.32455 22.2216 3.89646 22.9309 3.60764C23.6402 3.31882 24.4002 3.17513 25.166 3.18508C27.5106 3.21471 29.7014 4.64438 30.6181 6.7426C30.7336 7.0064 30.9236 7.2308 31.1647 7.38834C31.4058 7.54589 31.6875 7.62975 31.9755 7.62967H34.9386L31.5533 11.0279Z" fill="#ECE9E9"/>
</svg>
