<svg width="40" height="32" viewBox="0 0 40 32" fill="none" xmlns="http://www.w3.org/2000/svg">
<path d="M26.5071 14.8107L17.9357 9.09643C17.7205 8.95285 17.4704 8.87041 17.212 8.85789C16.9536 8.84537 16.6967 8.90325 16.4686 9.02535C16.2405 9.14745 16.0499 9.32918 15.917 9.55116C15.7842 9.77314 15.7141 10.027 15.7143 10.2857V21.7143C15.7141 21.973 15.7842 22.2269 15.917 22.4488C16.0499 22.6708 16.2405 22.8526 16.4686 22.9747C16.6967 23.0968 16.9536 23.1546 17.212 23.1421C17.4704 23.1296 17.7205 23.0472 17.9357 22.9036L26.5071 17.1893C26.7031 17.0589 26.8638 16.8821 26.9749 16.6746C27.0861 16.4671 27.1443 16.2354 27.1443 16C27.1443 15.7646 27.0861 15.5329 26.9749 15.3254C26.8638 15.1179 26.7031 14.9411 26.5071 14.8107ZM18.5714 19.0446V12.9643L23.1393 16L18.5714 19.0446ZM38.9875 5.55714C38.8192 4.89883 38.4969 4.28997 38.047 3.78077C37.5971 3.27158 37.0326 2.87665 36.4 2.62857C30.2786 0.264284 20.5357 0.285712 20 0.285712C19.4643 0.285712 9.72143 0.264284 3.6 2.62857C2.96743 2.87665 2.40292 3.27158 1.95303 3.78077C1.50313 4.28997 1.18076 4.89883 1.0125 5.55714C0.55 7.33928 0 10.5964 0 16C0 21.4036 0.55 24.6607 1.0125 26.4429C1.18051 27.1015 1.50277 27.7107 1.95268 28.2202C2.40258 28.7298 2.96723 29.125 3.6 29.3732C9.46429 31.6357 18.6429 31.7143 19.8821 31.7143H20.1179C21.3571 31.7143 30.5411 31.6357 36.4 29.3732C37.0328 29.125 37.5974 28.7298 38.0473 28.2202C38.4972 27.7107 38.8195 27.1015 38.9875 26.4429C39.45 24.6571 40 21.4036 40 16C40 10.5964 39.45 7.33928 38.9875 5.55714ZM36.2214 25.7357C36.167 25.9548 36.0614 26.1579 35.9134 26.3283C35.7653 26.4987 35.579 26.6316 35.3696 26.7161C29.7179 28.8982 20.1054 28.8589 20.0125 28.8589H20C19.9036 28.8589 10.2982 28.8946 4.64286 26.7161C4.43352 26.6316 4.24718 26.4987 4.09912 26.3283C3.95106 26.1579 3.84549 25.9548 3.79107 25.7357C3.35714 24.1054 2.85714 21.1018 2.85714 16C2.85714 10.8982 3.35714 7.89464 3.77857 6.27321C3.83198 6.05282 3.93709 5.84831 4.08521 5.6766C4.23332 5.50488 4.42019 5.37089 4.63036 5.28571C10.0804 3.18036 19.2125 3.14286 19.9607 3.14286H20.0089C20.1054 3.14286 29.7196 3.11071 35.3661 5.28571C35.5754 5.3702 35.7617 5.5031 35.9098 5.6735C36.0579 5.84391 36.1634 6.04698 36.2179 6.26607C36.6429 7.89464 37.1429 10.8982 37.1429 16C37.1429 21.1018 36.6429 24.1054 36.2214 25.7268V25.7357Z" fill="#ECE9E9"/>
</svg>
